<?xml version="1.0" encoding="UTF-8" standalone="no"?>
<svg
   xmlns:dc="http://purl.org/dc/elements/1.1/"
   xmlns:cc="http://creativecommons.org/ns#"
   xmlns:rdf="http://www.w3.org/1999/02/22-rdf-syntax-ns#"
   xmlns:svg="http://www.w3.org/2000/svg"
   xmlns="http://www.w3.org/2000/svg"
   xmlns:sodipodi="http://sodipodi.sourceforge.net/DTD/sodipodi-0.dtd"
   xmlns:inkscape="http://www.inkscape.org/namespaces/inkscape"
   version="1.1"
   id="svg2"
   xml:space="preserve"
   width="9600"
   height="2967.96"
   viewBox="0 0 9600 2967.96"
   sodipodi:docname="Edu-Network (1).ai"><metadata
     id="metadata8"><rdf:RDF><cc:Work
         rdf:about=""><dc:format>image/svg+xml</dc:format><dc:type
           rdf:resource="http://purl.org/dc/dcmitype/StillImage" /></cc:Work></rdf:RDF></metadata><defs
     id="defs6"><clipPath
       clipPathUnits="userSpaceOnUse"
       id="clipPath18"><path
         d="M 0,2225.97 H 7200 V 0 H 0 Z"
         id="path16" /></clipPath></defs><sodipodi:namedview
     pagecolor="#ffffff"
     bordercolor="#666666"
     borderopacity="1"
     objecttolerance="10"
     gridtolerance="10"
     guidetolerance="10"
     inkscape:pageopacity="0"
     inkscape:pageshadow="2"
     inkscape:window-width="640"
     inkscape:window-height="480"
     id="namedview4" /><g
     id="g10"
     inkscape:groupmode="layer"
     inkscape:label="Edu-Network (1)"
     transform="matrix(1.3333333,0,0,-1.3333333,0,2967.96)"><g
       id="g12"><g
         id="g14"
         clip-path="url(#clipPath18)"><g
           id="g20"
           transform="translate(3484.4116,1172.23)"><path
             d="m 0,0 -237.328,552.522 h 89.858 L -28.378,269.191 c 7.073,-16.351 12.892,-31.597 17.477,-45.485 C -6.3,209.697 -2.729,196.443 0,183.929 c 3.09,13.252 7.074,27.012 11.897,41.4 4.842,14.239 10.541,28.858 17.116,43.862 l 118.734,283.331 h 89.359 z M 575.071,181.447 H 299.93 c 1.992,-32.223 11.537,-57.383 28.765,-75.487 17.1,-18.094 40.026,-27.125 68.663,-27.125 25.408,0 46.586,5.322 63.444,15.975 16.988,10.652 31.736,27.89 44.379,51.684 l 66.181,-37.057 C 552.032,74.741 528.099,49.083 499.481,32.105 470.964,15.126 437.393,6.706 398.963,6.706 c -55.271,0 -99.153,16.84 -131.866,50.428 -32.593,33.702 -48.962,78.57 -48.962,134.717 0,54.044 16.859,98.294 50.697,133.119 33.7,34.697 77.092,52.052 130.131,52.052 55.409,0 98.655,-15.871 129.635,-47.589 30.987,-31.605 46.473,-76.104 46.473,-133.119 z m -81.797,52.791 c -3.09,24.662 -12.516,43.512 -28.25,56.397 -15.75,13.013 -37.305,19.459 -64.567,19.459 -25.915,0 -46.731,-6.326 -62.465,-18.842 -15.631,-12.644 -26.654,-31.597 -32.98,-57.014 z M 660.721,583.74 h 78.825 V 20.816 H 660.721 Z M 1176.184,20.816 h -78.824 v 44.499 c -14.02,-19.708 -30.492,-34.455 -49.213,-44.129 -18.824,-9.649 -40.275,-14.48 -64.567,-14.48 -48.594,0 -87.007,16.59 -114.888,49.94 -28.018,33.21 -42.01,78.826 -42.01,136.698 0,54.903 14.248,99.274 42.877,132.999 28.637,33.821 65.941,50.679 111.908,50.679 28.147,0 52.182,-5.818 72.131,-17.596 19.957,-11.657 34.584,-28.515 43.762,-50.439 v 56.13 h 78.824 z m -76.594,173.267 c 0,35.572 -8.3,63.323 -24.91,83.178 -16.619,19.949 -39.787,29.863 -69.529,29.863 -29.872,0 -53.307,-10.3 -70.285,-30.748 -17.092,-20.446 -25.65,-48.936 -25.65,-85.264 0,-36.567 8.172,-64.817 24.663,-84.646 16.489,-19.948 39.786,-29.862 69.778,-29.862 28.387,0 51.435,10.772 69.16,32.343 17.838,21.572 26.773,49.942 26.773,85.136 M 1363.563,20.816 h -78.826 v 344.301 h 74.122 V 308.6 c 15.751,24.052 33.589,41.65 53.547,52.688 19.948,11.023 43.511,16.473 70.654,16.473 26.893,0 49.187,-5.571 66.8,-16.842 17.717,-11.288 31.099,-28.515 40.275,-51.58 18.216,23.803 37.555,41.16 57.992,52.07 20.449,10.902 43.761,16.352 69.901,16.352 22.678,0 42.524,-4.223 59.494,-12.515 16.978,-8.421 30.111,-20.568 39.537,-36.568 4.463,-7.433 7.699,-16.472 9.666,-26.902 2.111,-10.404 3.091,-25.279 3.091,-44.593 V 20.816 h -78.81 v 176.751 c 0,46.216 -4.953,76.698 -14.748,91.325 -9.793,14.627 -27.261,21.941 -52.421,21.941 -30.997,0 -53.057,-9.916 -66.19,-29.624 -13.272,-19.709 -19.828,-54.285 -19.828,-103.599 V 20.816 h -79.566 v 176.751 c 0,42.629 -5.082,72.131 -15.364,88.603 -10.283,16.491 -28.148,24.663 -53.306,24.663 -15.487,0 -29.624,-3.46 -42.379,-10.533 -12.893,-7.065 -23.049,-16.73 -30.61,-29.006 -4.834,-8.051 -8.191,-17.846 -10.181,-29.374 -1.846,-11.639 -2.85,-33.082 -2.85,-64.31 z m 650.686,0 h -78.827 v 344.301 h 74.116 V 308.6 c 15.732,24.052 33.595,41.65 53.545,52.688 19.957,11.023 43.496,16.473 70.636,16.473 26.903,0 49.213,-5.571 66.809,-16.842 17.718,-11.288 31.117,-28.515 40.275,-51.58 18.225,23.803 37.547,41.16 58.011,52.07 20.448,10.902 43.735,16.352 69.899,16.352 22.678,0 42.508,-4.223 59.487,-12.515 16.986,-8.421 30.111,-20.568 39.538,-36.568 4.464,-7.433 7.68,-16.472 9.673,-26.902 2.086,-10.404 3.091,-25.279 3.091,-44.593 V 20.816 h -78.828 v 176.751 c 0,46.216 -4.961,76.698 -14.746,91.325 -9.794,14.627 -27.271,21.941 -52.431,21.941 -30.969,0 -53.031,-9.916 -66.182,-29.624 -13.253,-19.709 -19.828,-54.285 -19.828,-103.599 V 20.816 h -79.574 v 176.751 c 0,42.629 -5.08,72.131 -15.364,88.603 -10.284,16.491 -28.121,24.663 -53.281,24.663 -15.502,0 -29.623,-3.46 -42.387,-10.533 -12.902,-7.065 -23.064,-16.73 -30.619,-29.006 -4.84,-8.051 -8.181,-17.846 -10.164,-29.374 -1.861,-11.639 -2.849,-33.082 -2.849,-64.31 z m 896.083,0 h -78.826 v 44.499 c -14.019,-19.708 -30.507,-34.455 -49.213,-44.129 -18.839,-9.649 -40.275,-14.481 -64.568,-14.481 -48.593,0 -87.005,16.591 -114.902,49.941 -28.001,33.21 -42.001,78.826 -42.001,136.698 0,54.903 14.239,99.274 42.884,132.999 28.619,33.821 65.923,50.679 111.908,50.679 28.131,0 52.183,-5.818 72.131,-17.597 19.95,-11.656 34.576,-28.514 43.761,-50.438 v 56.13 h 78.826 z m -76.612,173.267 c 0,35.572 -8.301,63.323 -24.911,83.178 -16.601,19.948 -39.769,29.863 -69.512,29.863 -29.89,0 -53.306,-10.301 -70.285,-30.748 -17.107,-20.446 -25.648,-48.936 -25.648,-85.264 0,-36.567 8.172,-64.817 24.662,-84.646 16.473,-19.948 39.785,-29.862 69.777,-29.862 28.371,0 51.436,10.772 69.153,32.343 17.847,21.572 26.764,49.942 26.764,85.136 m 188.89,389.657 h 78.826 V 20.816 h -78.826 z"
             style="fill:#a31652;fill-opacity:1;fill-rule:nonzero;stroke:none"
             id="path22" /></g><g
           id="g24"
           transform="translate(3347.5674,603.9062)"><path
             d="M 0,0 V 409.35 L 250.307,168.692 c 6.79,-6.816 13.682,-14.061 20.748,-21.77 6.978,-7.725 14.326,-16.429 22.043,-26.076 v 273.071 h 58.944 V -15.416 L 96.877,229.74 c -6.797,6.697 -13.425,13.684 -19.742,21.031 -6.439,7.347 -12.396,15.056 -18.181,23.124 L 58.954,0 Z M 683.228,119.008 H 479.394 c 1.476,-23.881 8.541,-42.508 21.305,-55.915 12.67,-13.409 29.657,-20.122 50.861,-20.122 18.824,0 34.523,3.949 47.021,11.845 12.568,7.915 23.503,20.67 32.859,38.286 L 680.489,65.668 C 666.163,39.949 648.437,20.945 627.217,8.379 606.109,-4.205 581.233,-10.454 552.753,-10.454 c -40.945,0 -73.454,12.479 -97.693,37.374 -24.157,24.962 -36.269,58.216 -36.269,99.796 0,40.036 12.481,72.826 37.556,98.63 24.979,25.7 57.116,38.558 96.406,38.558 41.047,0 73.1,-11.742 96.053,-35.245 22.945,-23.417 34.422,-56.38 34.422,-98.63 z m -60.594,39.107 c -2.31,18.285 -9.271,32.226 -20.937,41.787 -11.657,9.631 -27.639,14.422 -47.837,14.422 -19.195,0 -34.619,-4.687 -46.267,-13.957 -11.572,-9.375 -19.744,-23.418 -24.439,-42.252 z M 988.06,-15.416 929.208,117.359 c -4.481,10.182 -8.154,19.281 -11.09,27.263 -2.85,8.001 -5.417,15.88 -7.812,23.607 -3.957,-11.675 -7.452,-21.684 -10.473,-30.027 -3.029,-8.345 -5.415,-14.61 -7.244,-18.749 L 832.081,-15.416 699.846,255.097 h 62.267 l 57.289,-122.955 c 2.283,-5.236 4.585,-12.31 6.893,-21.392 2.198,-9.099 4.13,-19.09 5.786,-30.026 0.172,6.421 1.192,13.219 3.193,20.189 1.941,6.987 5.348,15.606 9.932,25.803 l 62.431,137.737 h 4.867 l 63.538,-137.737 c 3.862,-8.618 6.799,-16.515 8.738,-23.948 1.82,-7.348 2.936,-14.697 3.28,-22.044 1.673,9.734 3.681,18.815 6.265,27.451 2.473,8.636 5.322,16.446 8.627,23.417 l 56.19,123.505 h 61.617 z m 178.699,169.137 h 143.789 V 99.729 h -143.789 z m 466.999,47.933 h 155.823 c 0,-2.677 0.086,-6.437 0.267,-11.313 0.541,-12.756 0.825,-21.289 0.825,-25.786 0,-55.384 -15.873,-98.425 -47.556,-129 -31.768,-30.679 -76.491,-46.009 -134.149,-46.009 -32.326,0 -61.075,4.772 -86.32,14.215 -25.245,9.579 -47.46,23.88 -66.379,43.074 -18.637,19.004 -32.962,41.322 -42.876,67.039 -10.027,25.614 -14.98,53.066 -14.98,82.252 0,29.769 5.065,57.203 15.15,82.388 10.198,25.048 25.161,47.177 45.092,66.371 19.184,18.833 41.684,33.134 67.496,43.056 25.786,9.821 53.425,14.783 82.817,14.783 30.937,0 58.765,-5.683 83.186,-16.979 24.421,-11.28 46.267,-28.552 65.47,-51.882 L 1710.979,298.6 c -13.322,15.434 -28.284,26.92 -44.996,34.439 -16.619,7.52 -35.255,11.279 -55.925,11.279 -42.688,0 -77.496,-13.666 -104.475,-41.031 -27.006,-27.365 -40.508,-62.885 -40.508,-106.596 0,-44.532 13.502,-80.619 40.508,-108.258 26.979,-27.745 61.968,-41.598 105.033,-41.598 36.549,0 65.383,8.55 86.319,25.528 21.023,17.065 31.486,40.225 31.486,69.685 v 5.613 h -94.663 z m 464.981,-82.646 h -203.857 c 1.474,-23.881 8.549,-42.508 21.312,-55.915 12.671,-13.409 29.659,-20.122 50.877,-20.122 18.809,0 34.508,3.949 47.006,11.845 12.567,7.915 23.502,20.67 32.86,38.286 l 49.048,-27.434 c -14.336,-25.719 -32.052,-44.723 -53.273,-57.289 -21.115,-12.584 -45.983,-18.833 -74.447,-18.833 -40.963,0 -73.47,12.479 -97.711,37.374 -24.139,24.962 -36.268,58.216 -36.268,99.796 0,40.036 12.481,72.826 37.556,98.63 24.978,25.7 57.117,38.558 96.423,38.558 41.031,0 73.074,-11.742 96.037,-35.245 22.945,-23.417 34.437,-56.38 34.437,-98.63 z m -60.609,39.107 c -2.293,18.285 -9.273,32.226 -20.945,41.787 -11.649,9.631 -27.631,14.422 -47.831,14.422 -19.184,0 -34.619,-4.687 -46.267,-13.957 -11.57,-9.375 -19.742,-23.418 -24.439,-42.252 z M 2159.428,0 v 255.097 h 54.903 v -41.89 c 11.648,17.648 25.33,30.49 41.133,38.576 15.787,8.07 34.988,12.121 57.658,12.121 19.006,0 35.16,-3.039 48.578,-9.013 13.305,-6.043 23.785,-14.954 31.314,-26.799 4.498,-6.988 7.717,-15.158 9.733,-24.515 1.914,-9.27 2.938,-25.632 2.938,-48.946 V 0 h -58.948 v 130.939 c 0,33.512 -4.041,55.831 -12.214,66.852 -8.18,11.006 -22.678,16.533 -43.529,16.533 -13.589,0 -25.787,-2.472 -36.448,-7.519 -10.652,-5.065 -19.107,-12.139 -25.15,-21.22 -4.327,-6.163 -7.348,-13.958 -9.004,-23.606 -1.743,-9.544 -2.585,-24.791 -2.585,-45.821 V 0 Z M 0,-533.901 v 393.917 H 219.816 V -194.51 H 63.915 v -98.63 h 155.901 v -56.189 H 63.915 v -127.249 h 155.901 v -57.323 z m 471.677,128.38 c 0,26.352 -6.155,46.919 -18.448,61.616 -12.3,14.78 -29.476,22.112 -51.501,22.112 -22.139,0 -39.488,-7.606 -52.08,-22.765 -12.67,-15.159 -18.997,-36.275 -18.997,-63.161 0,-27.09 6.061,-48.035 18.259,-62.73 12.223,-14.764 29.486,-22.113 51.708,-22.113 21.11,0 38.285,7.984 51.418,23.863 13.024,15.883 19.641,36.912 19.641,63.178 m -1.656,288.677 h 58.404 v -417.057 h -58.404 v 32.962 c -10.37,-14.575 -22.577,-25.511 -36.439,-32.671 -13.966,-7.158 -29.855,-10.746 -47.839,-10.746 -36.001,0 -64.465,12.309 -85.118,37.014 -20.746,24.601 -31.143,58.386 -31.143,101.274 0,40.685 10.568,73.527 31.788,98.507 21.202,25.082 48.842,37.563 82.911,37.563 20.85,0 38.654,-4.309 53.443,-13.03 14.782,-8.634 25.615,-21.132 32.397,-37.374 z m 195.575,-161.961 v -143.799 c 0,-24.685 5.15,-42.523 15.347,-53.251 10.182,-10.75 26.706,-16.157 49.667,-16.157 22.953,0 39.478,5.407 49.675,16.157 10.198,10.728 15.331,28.566 15.331,53.251 v 143.799 h 58.397 v -126.269 c 0,-48.74 -9.735,-84.192 -29.28,-106.235 -19.572,-22.027 -50.774,-33.047 -93.582,-33.047 -43.511,0 -75.101,10.919 -94.646,32.772 -19.57,21.873 -29.288,57.393 -29.288,106.51 v 126.269 z m 438.354,-255.096 v 409.349 l 250.299,-240.659 c 6.79,-6.798 13.683,-14.043 20.748,-21.768 6.979,-7.708 14.326,-16.429 22.043,-26.078 v 273.073 h 58.945 v -409.334 l -255.173,245.158 c -6.782,6.712 -13.391,13.681 -19.735,21.029 -6.42,7.348 -12.394,15.056 -18.181,23.142 v -273.912 z m 683.238,119.008 h -203.851 c 1.476,-23.881 8.54,-42.509 21.305,-55.918 12.678,-13.408 29.658,-20.102 50.877,-20.102 18.806,0 34.507,3.948 47.005,11.828 12.575,7.915 23.503,20.688 32.875,38.318 l 49.034,-27.467 c -14.329,-25.718 -32.054,-44.723 -53.266,-57.289 -21.115,-12.584 -45.991,-18.833 -74.455,-18.833 -40.963,0 -73.461,12.48 -97.711,37.374 -24.13,24.962 -36.268,58.216 -36.268,99.814 0,40.018 12.482,72.809 37.555,98.611 24.981,25.702 57.117,38.559 96.424,38.559 41.03,0 73.084,-11.744 96.037,-35.244 22.943,-23.417 34.439,-56.381 34.439,-98.63 z m -60.613,39.108 c -2.282,18.283 -9.262,32.241 -20.918,41.785 -11.676,9.648 -27.658,14.422 -47.855,14.422 -19.177,0 -34.61,-4.67 -46.268,-13.957 -11.57,-9.374 -19.742,-23.418 -24.437,-42.25 z m 135.069,-158.116 v 203.849 h -44.62 v 51.247 h 44.62 v 96.398 h 58.397 v -96.398 h 44.618 v -51.247 h -44.618 v -203.849 z m 397.392,-15.417 -58.86,132.775 c -4.482,10.199 -8.155,19.281 -11.109,27.263 -2.832,7.999 -5.416,15.898 -7.792,23.606 -3.948,-11.658 -7.452,-21.666 -10.473,-30.026 -3.022,-8.345 -5.416,-14.593 -7.246,-18.714 l -60.524,-134.904 -132.219,270.513 h 62.268 l 57.289,-122.955 c 2.285,-5.236 4.592,-12.31 6.877,-21.391 2.214,-9.099 4.128,-19.091 5.785,-30.027 0.189,6.422 1.194,13.219 3.219,20.189 1.932,6.987 5.322,15.623 9.914,25.821 l 62.439,137.737 h 4.868 l 63.539,-137.737 c 3.843,-8.637 6.799,-16.533 8.719,-23.967 1.846,-7.347 2.955,-14.695 3.306,-22.043 1.649,9.734 3.674,18.816 6.241,27.451 2.497,8.634 5.321,16.447 8.626,23.416 l 56.207,123.506 h 61.599 z m 369.58,142.15 c 0,23.691 -7.613,43.777 -22.849,60.225 -15.264,16.429 -33.899,24.601 -55.925,24.601 -21.855,0 -40.508,-8.172 -55.839,-24.601 -15.33,-16.448 -22.936,-36.534 -22.936,-60.225 0,-23.691 7.606,-43.796 22.936,-60.242 15.331,-16.431 33.984,-24.602 55.839,-24.602 21.846,0 40.481,8.171 55.83,24.602 15.331,16.446 22.944,36.551 22.944,60.242 m -219.259,0.531 c 0,18.661 3.57,36.293 10.635,52.809 7.091,16.619 17.263,31.4 30.491,44.26 13.125,12.755 28.19,22.488 45.262,29.374 17.092,6.798 34.894,10.196 53.531,10.196 19.202,0 37.287,-3.398 54.266,-10.196 16.902,-6.886 32.139,-16.876 45.643,-30.115 13.416,-13.115 23.603,-27.897 30.677,-44.446 6.979,-16.429 10.455,-33.786 10.455,-51.882 0,-18.797 -3.476,-36.533 -10.371,-52.963 -6.891,-16.531 -16.994,-31.14 -30.308,-43.898 -13.957,-13.391 -29.46,-23.587 -46.551,-30.49 -16.979,-6.883 -34.979,-10.368 -53.811,-10.368 -18.439,0 -36.269,3.485 -53.248,10.368 -17.072,6.903 -32.222,16.894 -45.545,29.942 -13.4,13.306 -23.599,28.191 -30.662,44.722 -6.978,16.428 -10.464,34.06 -10.464,52.687 m 400.962,87.059 c 6.344,16.892 14.611,29.375 24.895,37.459 10.368,8.088 23.133,12.121 38.465,12.121 8.265,0 16.351,-1.012 24.351,-2.936 7.975,-1.922 15.873,-4.875 23.59,-8.548 l -21.031,-49.666 c -5.056,3.57 -10.473,6.248 -16.258,7.897 -5.872,1.733 -12.396,2.573 -19.545,2.573 -19.476,0 -33.332,-7.707 -41.787,-23.227 -8.437,-15.519 -12.68,-41.597 -12.68,-78.148 v -111.848 h -58.402 v 255.629 h 58.402 z m 144.434,-214.323 v 417.057 h 58.405 v -267.749 l 106.888,105.788 h 72.164 l -115.779,-112.483 126.8,-142.613 h -75.382 l -114.691,131.59 v -131.59 h -58.405"
             style="fill:#4e4d4f;fill-opacity:1;fill-rule:nonzero;stroke:none"
             id="path26" /></g><g
           id="g28"
           transform="translate(2918.9546,1729.9009)"><path
             d="M 0,0 V -1659.896"
             style="fill:none;stroke:#8f9295;stroke-width:1.224;stroke-linecap:butt;stroke-linejoin:miter;stroke-miterlimit:2.613;stroke-dasharray:none;stroke-opacity:1"
             id="path30" /></g><g
           id="g32"
           transform="translate(1381.9556,854.7285)"><path
             d="M 0,0 92.636,145.875 C 90.458,72.551 35.675,-8.086 21.425,-33.58 6.884,-59.555 0.927,-83.727 33.768,-152.965 c 23.28,-49.1 53.187,-90.663 117.755,-74.801 43.554,10.713 68.243,64.518 106.096,114.82 37.014,49.202 58.714,116.138 70.182,168.518 22.267,-43.691 -12.187,-120.654 -24.601,-184.261 55.865,18.833 73.324,29.288 116.878,50.128 -31.021,-76.774 -141.703,-63.88 -184.415,-154.8 -13.769,-29.273 1.423,-77.479 -0.036,-132.262 -4.565,-172.141 69.238,-262.685 129.241,-359.58 -57.306,-52.001 -138.115,-58.902 -218.685,-51.262 -91.229,8.652 -118.955,37.081 -239.2,23.227 29.392,128.364 114.819,236.814 114.149,403.718 -0.719,184.779 -134.062,177.705 -195.609,340.456 51.829,-7.143 47.178,-99.557 124.243,-93.977 -11.589,93.788 -46.199,306.238 1.288,382.576 C -57.787,203.714 -54.183,56.91 0,0"
             style="fill:#777a80;fill-opacity:1;fill-rule:evenodd;stroke:none"
             id="path34" /></g><g
           id="g36"
           transform="translate(1928.6479,906.5234)"><path
             d="M 0,0 C 48.927,126.699 66.765,107.454 68.843,271.913 L 224.4,333.777 C 291.115,52.088 191.093,10.576 0,0"
             style="fill:#cb4b20;fill-opacity:1;fill-rule:evenodd;stroke:none"
             id="path38" /></g><g
           id="g40"
           transform="translate(961.085,886.4551)"><path
             d="M 0,0 C -136.793,31.503 -121.238,29.03 -263.182,13.202 -294.959,80.396 -329.416,97.6 -346.927,156.879 -151.212,284.951 -38.9,201.67 0,0"
             style="fill:#ef7a15;fill-opacity:1;fill-rule:evenodd;stroke:none"
             id="path42" /></g><g
           id="g44"
           transform="translate(1548.3804,1271.7866)"><path
             d="m 0,0 c -8.687,-32.576 -10.696,-36.62 -25.1,-74.603 l -43.4,-79.728 c -208.4,109.437 -184.416,306.507 -48.962,395.53 18.868,-39.623 19.021,-86.07 42.627,-133.574 C -54.062,65.821 -22.626,37.486 0,0"
             style="fill:#f3d126;fill-opacity:1;fill-rule:evenodd;stroke:none"
             id="path46" /></g><g
           id="g48"
           transform="translate(1500.4814,1916.7734)"><path
             d="m 0,0 -6.679,-6.326 c -12.738,-67.805 -141.736,-163.757 -171.008,-436.012 -56.533,34.326 -181.377,287.57 -155.129,363.615 C -313.622,-23.186 -84.242,-4.335 0,0"
             style="fill:#b51a33;fill-opacity:1;fill-rule:evenodd;stroke:none"
             id="path50" /></g><g
           id="g52"
           transform="translate(2023.4136,1647.1699)"><path
             d="m 0,0 c -32.602,-52.929 -2.009,-17.562 -73.924,-46.603 -47.692,-19.253 -44.826,-26.317 -99.848,-41.854 -9.872,45.932 -1.734,41.819 -35.537,79.546 -35.505,39.607 -37.753,15.769 -63.11,80.921 65.357,39.203 145.875,99.307 263.2,86.474 L 0,0"
             style="fill:#ef7a15;fill-opacity:1;fill-rule:evenodd;stroke:none"
             id="path54" /></g><g
           id="g56"
           transform="translate(1832.4727,1392.0732)"><path
             d="m 0,0 c -96.673,81.005 -53.013,90.131 -219.558,93.573 -24.928,57.538 -59.298,109.17 -93.736,139.711 C -148.844,285.604 69.117,218.898 0,0"
             style="fill:#608c88;fill-opacity:1;fill-rule:evenodd;stroke:none"
             id="path58" /></g><g
           id="g60"
           transform="translate(1031.1299,1492.9766)"><path
             d="m 0,0 c -94.061,-88.894 -134.611,-157.033 -339.441,-144.484 l -35.434,80.269 c 118.87,-2.267 164.175,9.63 195.61,94.49 L 0,0"
             style="fill:#a31652;fill-opacity:1;fill-rule:evenodd;stroke:none"
             id="path62" /></g><g
           id="g64"
           transform="translate(2182.4912,700.6484)"><path
             d="m 0,0 -6.113,-94.184 c -97.17,45.856 -23.554,103.059 -227.335,87.385 -26.921,90.543 -55.916,75.848 -88.261,147.969 C -142.82,146.389 -85.719,91.779 0,0"
             style="fill:#a31652;fill-opacity:1;fill-rule:evenodd;stroke:none"
             id="path66" /></g><g
           id="g68"
           transform="translate(1266.0039,904.0693)"><path
             d="m 0,0 c -11.555,-17.958 -162.665,-36.808 -203.49,-67.265 -9.426,90.252 -24.122,153.979 1.149,248.848 7.606,28.5 19.436,63.882 37.857,90.768 35.466,51.752 26.111,35.279 107.024,37.622 C -100.673,217.062 -49.186,110.853 0,0"
             style="fill:#98d320;fill-opacity:1;fill-rule:evenodd;stroke:none"
             id="path70" /></g><g
           id="g72"
           transform="translate(1913.7637,1043.334)"><path
             d="m 0,0 c -77.926,-47.727 -57.032,-37.014 -107.54,-111.539 -5.803,7.364 -10.868,5.613 -19.004,26.714 -9.152,23.777 -4.55,9.991 -9.22,37.149 -23.434,136.142 -38.079,245.046 84.295,234.539 C -32.019,104.08 -23.676,60.723 0,0"
             style="fill:#f3d126;fill-opacity:1;fill-rule:evenodd;stroke:none"
             id="path74" /></g><g
           id="g76"
           transform="translate(953.583,763.1045)"><path
             d="M 0,0 C -0.6,-70.628 -245.414,-232.351 -285.929,-13.494 -246.563,18.421 -172.055,62.988 -122.628,86.61 -77.632,21.426 -70.387,41.546 0,0"
             style="fill:#f3d126;fill-opacity:1;fill-rule:evenodd;stroke:none"
             id="path78" /></g><g
           id="g80"
           transform="translate(2079.2256,1343.2305)"><path
             d="m 0,0 c -98.182,-11.408 -74.353,-21.073 -143.745,-56.044 1.922,67.968 19.175,118.93 37.768,176.185 28.825,88.817 27.452,95.659 130.733,87.711 L 0,0"
             style="fill:#b8d617;fill-opacity:1;fill-rule:evenodd;stroke:none"
             id="path82" /></g><g
           id="g84"
           transform="translate(1089.8613,1749.9448)"><path
             d="m 0,0 c -27.605,-30.516 -48,-46.215 -67.193,-83.736 -40.106,15.881 -58.199,28.13 -111.506,51.092 6.678,71.727 61.151,117.642 125.479,144.364 C -17.15,78.827 -10.678,66.114 0,0"
             style="fill:#b8d617;fill-opacity:1;fill-rule:evenodd;stroke:none"
             id="path86" /></g><g
           id="g88"
           transform="translate(2499.5469,1158.9775)"><path
             d="M 0,0 C -28.001,-61.564 -130.923,-106.149 -169.224,-130.253 -145.79,0.18 -144.433,77.933 -151.216,222.477 -99.747,193.326 8.017,160.38 0,0"
             style="fill:#608c88;fill-opacity:1;fill-rule:evenodd;stroke:none"
             id="path90" /></g><g
           id="g92"
           transform="translate(2279.4531,1446.623)"><path
             d="m 0,0 c -56.154,22.662 -24.343,23.727 -77.271,73.813 -59.264,56.114 -42.06,30.464 -48.071,122.854 67.265,-18.447 69.308,-20.01 108.314,-79.324 C 13.58,70.792 29.736,55.375 0,0"
             style="fill:#ecd752;fill-opacity:1;fill-rule:evenodd;stroke:none"
             id="path94" /></g><g
           id="g96"
           transform="translate(1376.375,2013.9258)"><path
             d="M 0,0 6.661,6.326 C 50.629,54.585 107.145,93.152 183.095,111.505 206.615,74.448 233.002,43.503 245.688,-17.107 150.837,9.193 98.991,47.571 0,0"
             style="fill:#98d320;fill-opacity:1;fill-rule:evenodd;stroke:none"
             id="path98" /></g><g
           id="g100"
           transform="translate(1022.8218,1153.6206)"><path
             d="M 0,0 -78.13,-33.108 C -57.393,98.02 -113.17,86.826 -10.902,138.279 4.12,89.796 9.596,60.422 0,0"
             style="fill:#608c88;fill-opacity:1;fill-rule:evenodd;stroke:none"
             id="path102" /></g><g
           id="g104"
           transform="translate(2276.7246,756.0654)"><path
             d="M 0,0 C -104.055,-10.284 -122.356,10.146 -131.025,110.612 -49.426,80.688 -5.168,96.38 0,0"
             style="fill:#608c88;fill-opacity:1;fill-rule:evenodd;stroke:none"
             id="path106" /></g><g
           id="g108"
           transform="translate(1728.9678,1251.8726)"><path
             d="M 0,0 C -83.28,26.704 -125.667,82.568 -53.271,163.668 -12.807,105.599 14.8,81.727 0,0"
             style="fill:#a31652;fill-opacity:1;fill-rule:evenodd;stroke:none"
             id="path110" /></g><g
           id="g112"
           transform="translate(2294.9053,1304.4131)"><path
             d="M 0,0 -14.06,-96.387 C -122.372,23.933 -108.02,-47.305 -96.603,62.081 -32.91,48.715 -31.28,40.277 0,0"
             style="fill:#a31652;fill-opacity:1;fill-rule:evenodd;stroke:none"
             id="path114" /></g><g
           id="g116"
           transform="translate(1695.6797,992.5)"><path
             d="M 0,0 C -58.783,18.096 -132.228,21.512 -126.629,108.416 -32.206,117.205 -4.171,93.496 0,0"
             style="fill:#b8d617;fill-opacity:1;fill-rule:evenodd;stroke:none"
             id="path118" /></g><g
           id="g120"
           transform="translate(839.5044,1269.0488)"><path
             d="m 0,0 c -44.86,-51.813 -78.457,-72.99 -148.691,-50.354 16.619,64.114 27.537,72.415 87.384,88.416 L 0,0"
             style="fill:#f3d126;fill-opacity:1;fill-rule:evenodd;stroke:none"
             id="path122" /></g><g
           id="g124"
           transform="translate(1236.5957,568.1123)"><path
             d="M 0,0 C -127.387,0.909 -200.04,98.097 -115.626,200.777 -50.799,132.243 -10.594,113.513 0,0"
             style="fill:#7b7c67;fill-opacity:1;fill-rule:evenodd;stroke:none"
             id="path126" /></g><g
           id="g128"
           transform="translate(2269.0498,935.9668)"><path
             d="M 0,0 C -66.146,-11.657 -117.856,23.383 -25.975,63.299 -2.986,70.56 26.543,75.145 50.646,80.036 L 0,0"
             style="fill:#374c59;fill-opacity:1;fill-rule:evenodd;stroke:none"
             id="path130" /></g><g
           id="g132"
           transform="translate(1848.3193,1972.2598)"><path
             d="M 0,0 -14.077,-96.407 C -122.373,23.906 -108.039,-47.323 -96.604,62.052 -32.91,48.713 -31.297,40.275 0,0"
             style="fill:#a31652;fill-opacity:1;fill-rule:evenodd;stroke:none"
             id="path134" /></g></g></g></g></svg>
