<?xml version="1.0" encoding="utf-8"?>
<svg width="96px" height="96px" viewbox="0 0 96 96" version="1.1" xmlns:xlink="http://www.w3.org/1999/xlink" xmlns="http://www.w3.org/2000/svg">
  <g id="Group-2">
    <path d="M0 48C0 21.4903 21.4903 0 48 0C74.5097 0 96 21.4903 96 48C96 74.5097 74.5097 96 48 96C21.4903 96 0 74.5097 0 48Z" id="Ellipse-Copy" fill="#0782D8" fill-rule="evenodd" stroke="none" />
    <g id="Group" transform="translate(17 31)">
      <g id="Group">
        <path d="M0 17C0 9.17597 13.8792 0 31 0C48.1208 0 62 9.17597 62 17C62 24.824 48.1208 34 31 34C13.8792 34 0 24.824 0 17Z" id="Ellipse-2" fill="#FFFFFF" fill-rule="evenodd" stroke="none" />
        <path d="M0 7.5C0 3.35786 3.35786 0 7.5 0C11.6421 0 15 3.35786 15 7.5C15 11.6421 11.6421 15 7.5 15C3.35786 15 0 11.6421 0 7.5Z" transform="translate(23.5 9.5)" id="Ellipse-3" fill="#0782D8" fill-rule="evenodd" stroke="none" />
      </g>
    </g>
  </g>
</svg>